<svg id="svg" version="1.1" xmlns="http://www.w3.org/2000/svg" xmlns:xlink="http://www.w3.org/1999/xlink" width="400" height="100.94533497739415" viewBox="0, 0, 400,100.94533497739415"><g id="svgg"><path id="path0" d="M46.417 8.933 C 26.293 10.995,10.937 24.702,7.421 43.741 C 1.709 74.673,29.571 100.816,60.167 93.232 C 90.291 85.766,102.470 49.056,82.886 24.750 C 74.305 14.100,59.340 7.609,46.417 8.933 M350.817 23.406 C 345.909 24.434,344.084 27.886,343.852 36.583 L 343.750 40.417 340.000 40.508 C 337.938 40.558,336.231 40.615,336.208 40.633 C 336.028 40.779,336.198 46.319,336.388 46.476 C 336.531 46.595,337.911 46.676,340.263 46.705 L 343.917 46.750 343.959 58.741 C 343.993 68.080,344.048 70.761,344.209 70.863 C 344.480 71.035,349.854 71.035,350.124 70.863 C 350.285 70.761,350.341 68.080,350.374 58.741 L 350.417 46.750 355.417 46.707 C 359.880 46.669,360.439 46.634,360.625 46.384 C 360.860 46.067,360.924 41.068,360.697 40.711 C 360.599 40.556,359.297 40.494,355.492 40.461 L 350.417 40.417 350.439 36.917 C 350.471 31.789,350.865 30.378,352.502 29.528 C 353.823 28.843,356.756 29.148,359.362 30.242 C 359.841 30.443,359.967 29.861,360.027 27.176 L 360.083 24.608 359.568 24.304 C 358.017 23.389,353.238 22.899,350.817 23.406 M315.162 24.746 C 312.548 25.586,311.224 29.032,312.576 31.472 C 314.808 35.502,320.980 34.322,321.449 29.775 C 321.802 26.359,318.460 23.685,315.162 24.746 M51.833 37.917 L 51.833 49.833 63.750 49.833 L 75.667 49.833 75.667 52.583 L 75.667 55.333 61.000 55.333 L 46.333 55.333 46.333 40.667 L 46.333 26.000 49.083 26.000 L 51.833 26.000 51.833 37.917 M35.833 46.333 L 35.833 65.500 55.000 65.500 L 74.167 65.500 74.167 68.250 L 74.167 71.000 52.250 71.000 L 30.333 71.000 30.333 49.083 L 30.333 27.167 33.083 27.167 L 35.833 27.167 35.833 46.333 M117.833 28.000 C 117.372 28.461,117.300 69.974,117.759 70.630 C 118.066 71.067,123.715 71.218,124.133 70.800 C 124.284 70.649,124.333 68.293,124.333 61.217 L 124.333 51.833 129.500 51.833 L 134.667 51.833 134.667 61.217 C 134.667 68.293,134.716 70.649,134.867 70.800 C 135.123 71.056,140.705 71.080,141.178 70.827 C 141.494 70.658,141.500 70.243,141.500 49.323 L 141.500 27.992 141.045 27.819 C 140.300 27.536,135.025 27.690,134.830 28.000 C 134.736 28.149,134.671 31.713,134.669 36.794 L 134.667 45.338 129.542 45.294 L 124.417 45.250 124.373 36.620 L 124.330 27.991 123.904 27.829 C 123.016 27.491,118.207 27.627,117.833 28.000 M198.500 38.168 C 195.121 38.604,192.575 40.248,190.538 43.312 L 189.583 44.747 189.500 41.915 L 189.417 39.083 184.020 39.039 C 180.176 39.008,178.557 39.050,178.395 39.185 C 178.219 39.331,178.167 39.996,178.167 42.098 C 178.167 45.412,177.908 45.167,181.406 45.167 L 184.000 45.167 184.000 54.917 L 184.000 64.667 181.867 64.667 C 180.430 64.667,179.668 64.732,179.533 64.867 C 179.152 65.248,179.262 70.617,179.656 70.827 C 180.244 71.142,197.085 71.058,197.405 70.738 C 197.717 70.426,197.793 65.548,197.494 64.989 C 197.332 64.686,197.111 64.667,193.810 64.667 L 190.298 64.667 190.386 59.042 C 190.511 51.169,190.931 49.490,193.424 46.910 C 195.748 44.506,200.212 43.917,203.498 45.582 C 204.816 46.250,204.786 46.274,206.128 43.582 C 207.504 40.821,207.528 40.695,206.792 40.071 C 205.115 38.651,201.389 37.796,198.500 38.168 M158.417 38.399 C 156.218 38.825,152.895 40.130,151.787 41.000 L 151.333 41.358 151.333 44.230 C 151.333 47.802,151.395 47.948,152.601 47.250 C 154.786 45.987,155.879 45.460,157.333 44.969 C 162.358 43.275,166.107 45.151,166.223 49.417 L 166.250 50.417 163.652 50.529 C 153.719 50.960,148.770 54.404,148.245 61.250 C 147.533 70.526,159.043 75.609,165.696 68.958 C 167.085 67.570,166.978 67.537,167.035 69.375 L 167.083 70.917 169.904 70.962 C 171.508 70.989,172.793 70.941,172.881 70.852 C 173.084 70.649,173.038 50.313,172.830 48.167 C 172.124 40.880,166.229 36.885,158.417 38.399 M285.084 38.346 C 283.850 38.653,281.982 39.706,280.981 40.659 L 280.000 41.592 280.000 40.296 L 280.000 39.000 277.180 39.000 C 275.629 39.000,274.261 39.038,274.139 39.085 C 273.772 39.226,273.917 70.298,274.286 70.706 C 274.623 71.079,279.734 71.153,280.212 70.792 C 280.461 70.603,280.493 69.645,280.547 60.583 C 280.612 49.700,280.623 49.561,281.596 47.641 C 283.431 44.020,288.114 42.991,290.049 45.784 C 291.365 47.683,291.500 49.076,291.500 60.775 C 291.500 69.372,291.530 70.506,291.762 70.738 C 292.131 71.107,297.519 71.129,297.823 70.763 C 298.150 70.368,297.968 48.950,297.624 47.417 C 296.182 40.990,290.620 36.967,285.084 38.346 M218.911 38.567 C 218.175 38.887,217.338 39.790,216.899 40.737 L 216.516 41.565 216.466 40.324 L 216.417 39.083 213.792 39.037 L 211.167 38.992 211.167 54.568 C 211.167 64.286,211.228 70.306,211.329 70.572 L 211.492 71.000 214.157 71.000 C 216.621 71.000,216.835 70.976,216.994 70.678 C 217.108 70.465,217.167 66.731,217.167 59.719 C 217.168 48.359,217.248 46.969,217.995 45.427 C 218.612 44.153,219.657 44.067,220.418 45.229 C 221.144 46.336,221.211 47.369,221.316 59.083 L 221.417 70.250 224.167 70.250 L 226.917 70.250 227.013 58.917 C 227.081 50.895,227.167 47.372,227.309 46.860 C 228.036 44.227,229.630 43.577,230.505 45.556 C 231.078 46.851,231.167 48.761,231.167 59.774 C 231.167 65.658,231.212 70.591,231.268 70.736 C 231.410 71.107,236.516 71.133,236.821 70.765 C 237.156 70.361,236.970 46.737,236.620 45.333 C 234.585 37.161,227.979 35.624,225.408 42.724 C 224.959 43.965,224.744 44.070,224.613 43.113 C 224.153 39.758,221.334 37.511,218.911 38.567 M251.367 38.670 C 243.897 40.627,239.930 50.923,242.587 61.457 C 245.959 74.823,261.917 75.640,266.232 62.667 C 270.843 48.803,262.723 35.695,251.367 38.670 M306.367 39.200 C 306.086 39.481,306.086 44.853,306.367 45.133 C 306.511 45.277,307.633 45.333,310.367 45.333 L 314.167 45.333 314.167 55.000 L 314.167 64.667 309.783 64.667 C 306.596 64.667,305.345 64.721,305.200 64.867 C 304.870 65.197,304.925 70.401,305.262 70.738 C 305.582 71.058,328.419 71.144,329.011 70.827 C 329.423 70.607,329.514 65.191,329.112 64.857 C 328.967 64.737,327.503 64.657,324.903 64.628 L 320.917 64.583 320.874 52.016 C 320.844 43.069,320.778 39.384,320.645 39.224 C 320.388 38.915,306.675 38.891,306.367 39.200 M367.096 39.145 C 367.013 39.280,368.922 44.928,374.868 62.144 C 376.802 67.742,376.743 66.991,375.505 70.277 C 373.925 74.470,372.894 75.103,368.940 74.310 C 367.767 74.074,367.906 73.834,367.619 76.583 C 367.271 79.906,367.624 80.219,371.750 80.239 C 375.833 80.259,378.000 78.802,379.942 74.730 C 380.832 72.865,392.500 39.884,392.500 39.235 C 392.500 39.041,391.961 39.000,389.437 39.000 L 386.374 39.000 385.856 40.458 C 385.571 41.260,384.317 44.917,383.070 48.583 C 381.823 52.250,380.577 55.911,380.300 56.718 C 380.023 57.525,379.752 58.141,379.696 58.085 C 379.641 58.030,378.161 53.732,376.407 48.534 L 373.218 39.083 370.204 39.038 C 368.502 39.012,367.150 39.059,367.096 39.145 M256.417 44.644 C 262.302 47.322,262.131 63.480,256.196 65.600 C 251.870 67.145,248.438 62.358,248.477 54.834 C 248.516 47.504,252.229 42.738,256.417 44.644 M166.500 57.465 C 166.500 64.384,157.962 69.046,155.251 63.607 C 153.136 59.362,156.882 56.437,164.542 56.354 L 166.500 56.333 166.500 57.465 " stroke="none" fill="#fbfbfb" fill-rule="evenodd"></path><path id="path1" d="M0.000 50.417 L 0.000 100.833 200.000 100.833 L 400.000 100.833 400.000 50.417 L 400.000 0.000 200.000 0.000 L 0.000 0.000 0.000 50.417 M54.500 9.009 C 86.143 12.653,103.115 48.804,85.573 75.196 C 67.245 102.773,26.477 100.707,11.322 71.434 C -4.436 40.997,20.406 5.083,54.500 9.009 M357.069 23.410 C 360.296 24.031,360.412 24.169,360.259 27.228 C 360.080 30.803,360.188 30.667,358.091 29.966 C 355.131 28.976,352.532 29.158,351.566 30.424 C 350.772 31.465,350.634 32.279,350.543 36.458 L 350.458 40.333 355.556 40.333 C 361.625 40.333,361.000 39.961,361.000 43.572 C 361.000 47.158,361.556 46.833,355.417 46.833 L 350.500 46.833 350.500 58.738 C 350.500 69.338,350.471 70.672,350.238 70.905 C 349.872 71.271,344.570 71.293,344.074 70.930 C 343.759 70.700,343.749 70.353,343.705 58.763 L 343.660 46.833 340.092 46.833 C 335.608 46.833,336.000 47.150,336.000 43.521 C 336.000 40.011,335.593 40.333,340.033 40.333 L 343.667 40.333 343.667 37.327 C 343.667 25.656,347.587 21.585,357.069 23.410 M318.880 24.871 C 320.622 25.616,321.802 27.683,321.622 29.674 C 321.077 35.677,311.895 35.275,311.931 29.250 C 311.952 25.591,315.434 23.398,318.880 24.871 M46.500 40.667 L 46.500 55.167 61.000 55.167 L 75.500 55.167 75.500 52.584 L 75.500 50.002 63.625 49.959 L 51.750 49.917 51.707 38.042 L 51.664 26.167 49.082 26.167 L 46.500 26.167 46.500 40.667 M30.500 49.083 L 30.500 70.833 52.250 70.833 L 74.000 70.833 74.000 68.167 L 74.000 65.500 54.833 65.500 L 35.667 65.500 35.667 46.417 L 35.667 27.333 33.083 27.333 L 30.500 27.333 30.500 49.083 M124.130 27.759 L 124.500 28.019 124.500 36.593 L 124.500 45.167 129.500 45.167 L 134.500 45.167 134.500 36.667 C 134.500 28.389,134.509 28.158,134.833 27.833 C 135.284 27.382,140.670 27.321,141.296 27.759 L 141.667 28.019 141.667 49.333 L 141.667 70.648 141.296 70.907 C 140.670 71.346,135.284 71.284,134.833 70.833 C 134.508 70.508,134.500 70.278,134.500 61.250 L 134.500 52.000 129.500 52.000 L 124.500 52.000 124.500 61.321 C 124.500 69.573,124.470 70.673,124.238 70.905 C 123.924 71.218,118.386 71.296,117.822 70.994 C 117.368 70.751,117.309 28.215,117.762 27.762 C 118.147 27.377,123.581 27.375,124.130 27.759 M203.251 38.257 C 205.075 38.732,207.228 39.913,207.432 40.550 C 207.538 40.883,205.487 45.376,204.987 45.904 C 204.688 46.219,204.666 46.216,203.550 45.708 C 198.653 43.482,194.094 44.917,191.840 49.394 C 190.772 51.516,190.647 52.435,190.549 58.875 L 190.464 64.500 193.815 64.500 C 198.184 64.500,197.874 64.232,197.803 67.942 C 197.755 70.440,197.720 70.716,197.426 70.930 C 196.832 71.364,179.939 71.273,179.500 70.833 C 179.194 70.527,179.167 70.278,179.167 67.805 C 179.167 64.330,179.032 64.500,181.776 64.500 L 183.833 64.500 183.833 54.833 L 183.833 45.167 181.117 45.167 C 177.737 45.167,178.000 45.427,178.000 42.082 C 178.000 38.442,177.294 38.819,184.000 38.873 L 189.583 38.917 189.629 41.652 L 189.675 44.388 190.492 43.152 C 193.348 38.829,198.240 36.952,203.251 38.257 M165.167 38.425 C 168.936 39.389,171.537 41.948,172.611 45.750 C 172.858 46.624,172.909 48.188,173.018 58.167 C 173.086 64.446,173.191 69.815,173.252 70.098 C 173.467 71.097,173.192 71.180,169.859 71.129 L 166.917 71.083 166.869 69.554 L 166.821 68.024 165.681 69.164 C 160.267 74.578,150.290 72.075,148.414 64.833 C 146.203 56.296,152.790 50.333,164.434 50.333 L 166.215 50.333 166.110 49.208 C 165.612 43.880,159.928 42.853,153.412 46.914 C 151.236 48.270,151.167 48.188,151.167 44.236 C 151.167 40.874,151.094 41.042,152.954 40.108 C 156.873 38.142,161.543 37.498,165.167 38.425 M289.590 38.253 C 293.109 39.147,296.109 42.011,297.325 45.637 C 298.089 47.915,298.165 49.232,298.166 60.282 L 298.167 70.648 297.796 70.907 C 297.397 71.187,292.297 71.297,291.885 71.036 C 291.376 70.712,291.333 69.866,291.332 60.114 C 291.331 50.349,291.274 49.106,290.742 47.417 C 289.360 43.024,283.795 43.317,281.653 47.894 C 280.704 49.921,280.673 50.337,280.670 60.875 C 280.667 70.276,280.659 70.508,280.333 70.833 C 279.901 71.266,274.810 71.347,274.240 70.930 C 273.885 70.671,273.552 39.533,273.898 39.038 C 274.011 38.877,274.770 38.837,277.065 38.871 L 280.083 38.917 280.073 40.120 L 280.063 41.323 280.906 40.525 C 283.229 38.332,286.516 37.471,289.590 38.253 M221.817 38.492 C 223.164 39.179,224.492 41.175,224.787 42.960 C 224.874 43.484,224.896 43.459,225.430 42.231 C 228.298 35.635,234.657 37.105,236.693 44.833 C 237.135 46.513,237.405 70.428,236.988 70.932 C 236.757 71.209,231.760 71.273,231.333 71.004 C 231.116 70.867,231.071 69.269,230.993 58.881 C 230.897 45.973,230.886 45.823,229.998 44.869 C 229.282 44.101,228.201 44.630,227.768 45.960 C 227.228 47.618,227.169 48.955,227.168 59.508 C 227.167 67.523,227.118 70.149,226.967 70.300 C 226.828 70.438,225.967 70.500,224.167 70.500 C 222.367 70.500,221.505 70.438,221.367 70.300 C 221.216 70.149,221.167 67.648,221.167 60.068 C 221.167 47.888,221.017 46.000,219.965 44.880 C 219.234 44.101,218.196 44.651,217.830 46.013 C 217.336 47.846,217.291 48.853,217.218 59.615 C 217.157 68.571,217.098 70.849,216.924 70.994 C 216.412 71.418,211.452 71.134,211.215 70.667 C 211.048 70.338,211.012 66.958,211.044 54.583 L 211.083 38.917 213.750 38.917 L 216.417 38.917 216.500 40.083 C 216.566 41.007,216.613 41.163,216.725 40.833 C 217.463 38.664,219.930 37.529,221.817 38.492 M257.590 38.418 C 260.866 39.248,263.723 41.651,265.418 45.000 C 268.583 51.257,268.069 61.487,264.315 66.944 C 259.821 73.475,250.058 73.777,245.336 67.532 C 239.878 60.314,240.658 46.545,246.842 40.948 C 249.473 38.568,253.986 37.505,257.590 38.418 M320.800 39.033 C 320.952 39.185,321.000 42.263,321.000 51.867 L 321.000 64.500 324.991 64.500 C 329.925 64.500,329.500 64.183,329.500 67.870 C 329.500 71.609,331.155 71.167,317.167 71.167 C 303.179 71.167,304.833 71.609,304.833 67.870 C 304.833 64.163,304.341 64.500,309.759 64.500 L 314.167 64.500 314.167 55.000 L 314.167 45.500 310.454 45.500 C 305.595 45.500,306.000 45.803,306.000 42.169 C 306.000 39.835,306.045 39.313,306.262 39.095 C 306.605 38.752,320.459 38.693,320.800 39.033 M373.249 38.998 C 373.304 39.088,374.735 43.269,376.427 48.289 C 378.119 53.309,379.547 57.529,379.599 57.667 C 379.651 57.804,381.169 53.642,382.972 48.417 L 386.250 38.917 389.379 38.871 C 392.123 38.832,392.520 38.859,392.610 39.093 C 392.668 39.243,391.274 43.447,389.445 48.639 C 387.648 53.742,385.060 61.142,383.695 65.083 C 379.735 76.514,378.894 78.051,375.751 79.596 C 372.703 81.095,366.948 80.430,367.242 78.613 C 367.289 78.322,367.408 77.221,367.506 76.167 C 367.718 73.888,367.712 73.896,368.936 74.142 C 373.073 74.973,374.196 74.107,375.984 68.705 L 376.496 67.160 375.762 65.038 C 375.359 63.871,373.928 59.767,372.581 55.917 C 368.170 43.299,366.842 39.338,366.940 39.084 C 367.054 38.785,373.066 38.703,373.249 38.998 M253.136 44.587 C 248.782 45.982,247.151 56.777,250.372 62.873 C 252.475 66.853,257.002 66.712,258.994 62.606 C 263.008 54.332,259.207 42.641,253.136 44.587 M162.439 56.511 C 156.491 57.038,153.667 59.797,155.329 63.459 C 157.826 68.960,166.333 64.367,166.333 57.518 L 166.333 56.333 165.125 56.357 C 164.460 56.369,163.252 56.439,162.439 56.511 " stroke="none" fill="#040404" fill-rule="evenodd"></path><path id="path2" d="M51.746 37.917 C 51.746 44.425,51.766 47.112,51.792 43.887 C 51.817 40.663,51.817 35.338,51.792 32.054 C 51.766 28.770,51.746 31.408,51.746 37.917 M141.581 49.333 C 141.581 60.929,141.601 65.673,141.625 59.875 C 141.649 54.077,141.649 44.590,141.625 38.792 C 141.601 32.994,141.581 37.737,141.581 49.333 M343.732 38.083 C 343.733 39.367,343.759 39.870,343.791 39.201 C 343.822 38.532,343.822 37.482,343.790 36.868 C 343.758 36.253,343.732 36.800,343.732 38.083 M273.892 45.750 C 273.892 46.575,273.920 46.934,273.955 46.547 C 273.990 46.160,273.990 45.485,273.956 45.047 C 273.922 44.609,273.893 44.925,273.892 45.750 M280.578 61.417 C 280.578 66.367,280.599 68.368,280.625 65.863 C 280.651 63.359,280.651 59.309,280.625 56.863 C 280.599 54.418,280.578 56.467,280.578 61.417 M180.792 64.623 C 181.365 64.656,182.302 64.656,182.875 64.623 C 183.448 64.591,182.979 64.564,181.833 64.564 C 180.688 64.564,180.219 64.591,180.792 64.623 M192.208 64.624 C 193.102 64.654,194.565 64.654,195.458 64.624 C 196.352 64.594,195.621 64.570,193.833 64.570 C 192.046 64.570,191.315 64.594,192.208 64.624 M307.625 64.625 C 308.840 64.653,310.827 64.653,312.042 64.625 C 313.256 64.596,312.262 64.573,309.833 64.573 C 307.404 64.573,306.410 64.596,307.625 64.625 M323.042 64.624 C 324.119 64.653,325.881 64.653,326.958 64.624 C 328.035 64.595,327.154 64.572,325.000 64.572 C 322.846 64.572,321.965 64.595,323.042 64.624 M179.234 67.833 C 179.234 69.254,179.259 69.835,179.291 69.125 C 179.322 68.415,179.322 67.252,179.291 66.542 C 179.259 65.831,179.234 66.412,179.234 67.833 M222.875 70.457 C 223.585 70.488,224.748 70.488,225.458 70.457 C 226.169 70.426,225.588 70.400,224.167 70.400 C 222.746 70.400,222.165 70.426,222.875 70.457 " stroke="none" fill="#7c7c7c" fill-rule="evenodd"></path><path id="path3" d="M48.880 8.789 C 49.318 8.824,49.993 8.823,50.380 8.788 C 50.767 8.754,50.408 8.725,49.583 8.726 C 48.758 8.726,48.442 8.755,48.880 8.789 M19.080 21.375 L 17.583 22.917 19.125 21.420 C 20.557 20.030,20.743 19.833,20.622 19.833 C 20.597 19.833,19.903 20.527,19.080 21.375 M353.295 23.121 C 353.594 23.158,354.044 23.157,354.295 23.119 C 354.545 23.081,354.300 23.051,353.750 23.052 C 353.200 23.053,352.995 23.084,353.295 23.121 M316.375 24.448 C 316.535 24.490,316.798 24.490,316.958 24.448 C 317.119 24.406,316.987 24.372,316.667 24.372 C 316.346 24.372,316.215 24.406,316.375 24.448 M346.575 25.542 L 345.917 26.250 346.625 25.591 C 347.284 24.978,347.410 24.833,347.284 24.833 C 347.257 24.833,346.938 25.152,346.575 25.542 M360.214 26.417 C 360.216 26.875,360.248 27.043,360.286 26.789 C 360.325 26.536,360.324 26.161,360.284 25.956 C 360.244 25.751,360.213 25.958,360.214 26.417 M46.410 26.208 C 46.366 26.323,46.350 32.904,46.375 40.833 L 46.419 55.250 46.459 40.713 L 46.500 26.175 49.125 26.125 L 51.750 26.074 49.120 26.037 C 47.141 26.009,46.470 26.052,46.410 26.208 M30.410 27.375 C 30.367 27.490,30.351 37.296,30.374 49.167 L 30.418 70.750 30.459 49.046 L 30.500 27.342 33.125 27.291 L 35.750 27.241 33.120 27.204 C 31.141 27.176,30.470 27.218,30.410 27.375 M119.367 27.624 C 120.164 27.654,121.514 27.655,122.367 27.624 C 123.219 27.594,122.567 27.569,120.917 27.569 C 119.267 27.569,118.569 27.593,119.367 27.624 M136.533 27.624 C 137.331 27.654,138.681 27.655,139.533 27.624 C 140.386 27.594,139.733 27.569,138.083 27.569 C 136.433 27.569,135.736 27.593,136.533 27.624 M134.540 36.623 L 134.500 45.162 129.458 45.208 L 124.417 45.255 129.464 45.294 C 133.377 45.325,134.528 45.287,134.590 45.125 C 134.634 45.010,134.650 41.129,134.625 36.500 L 134.580 28.083 134.540 36.623 M360.048 29.083 C 360.049 29.542,360.081 29.709,360.120 29.456 C 360.158 29.203,360.157 28.828,360.117 28.623 C 360.078 28.418,360.046 28.625,360.048 29.083 M311.879 29.333 C 311.879 29.746,311.911 29.915,311.951 29.708 C 311.991 29.502,311.991 29.165,311.951 28.958 C 311.911 28.752,311.879 28.921,311.879 29.333 M354.127 29.285 C 354.334 29.324,354.634 29.323,354.794 29.281 C 354.953 29.239,354.783 29.207,354.417 29.209 C 354.050 29.211,353.920 29.245,354.127 29.285 M343.721 34.750 C 343.722 35.392,343.752 35.634,343.788 35.288 C 343.824 34.942,343.824 34.417,343.787 34.121 C 343.750 33.825,343.721 34.108,343.721 34.750 M199.625 37.954 C 199.923 37.991,200.410 37.991,200.708 37.954 C 201.006 37.917,200.762 37.887,200.167 37.887 C 199.571 37.887,199.327 37.917,199.625 37.954 M160.208 38.123 C 160.735 38.156,161.598 38.156,162.125 38.123 C 162.652 38.090,162.221 38.063,161.167 38.063 C 160.112 38.063,159.681 38.090,160.208 38.123 M233.500 39.219 C 233.500 39.248,233.744 39.491,234.042 39.760 L 234.583 40.250 234.094 39.708 C 233.638 39.203,233.500 39.090,233.500 39.219 M280.042 40.250 C 280.044 40.617,280.078 40.747,280.118 40.540 C 280.158 40.332,280.156 40.032,280.115 39.873 C 280.073 39.714,280.040 39.883,280.042 40.250 M273.709 40.917 C 273.711 41.283,273.745 41.414,273.785 41.206 C 273.824 40.999,273.823 40.699,273.781 40.540 C 273.739 40.380,273.707 40.550,273.709 40.917 M360.901 43.500 C 360.901 45.012,360.926 45.631,360.957 44.875 C 360.988 44.119,360.988 42.881,360.957 42.125 C 360.926 41.369,360.901 41.987,360.901 43.500 M151.236 44.333 C 151.236 46.029,151.261 46.723,151.291 45.875 C 151.321 45.027,151.321 43.640,151.291 42.792 C 151.261 41.944,151.236 42.637,151.236 44.333 M211.080 55.917 C 211.080 63.892,211.100 67.179,211.125 63.221 C 211.150 59.263,211.150 52.738,211.125 48.721 C 211.100 44.704,211.080 47.942,211.080 55.917 M286.460 44.285 C 286.668 44.324,286.968 44.323,287.127 44.281 C 287.286 44.239,287.117 44.207,286.750 44.209 C 286.383 44.211,286.253 44.245,286.460 44.285 M183.911 54.833 C 183.911 60.196,183.932 62.390,183.958 59.708 C 183.984 57.027,183.984 52.640,183.958 49.958 C 183.932 47.277,183.911 49.471,183.911 54.833 M308.551 45.458 C 309.633 45.487,311.358 45.487,312.384 45.458 C 313.410 45.428,312.525 45.405,310.417 45.405 C 308.308 45.405,307.469 45.429,308.551 45.458 M340.041 46.790 L 343.664 46.840 343.709 58.587 L 343.753 70.333 343.752 58.542 L 343.750 46.750 340.083 46.745 L 336.417 46.740 340.041 46.790 M352.969 46.791 C 354.372 46.819,356.622 46.819,357.969 46.791 C 359.315 46.763,358.167 46.740,355.417 46.741 C 352.667 46.741,351.565 46.763,352.969 46.791 M273.912 58.833 C 273.912 65.296,273.933 67.940,273.958 64.708 C 273.984 61.477,273.984 56.190,273.958 52.958 C 273.933 49.727,273.912 52.371,273.912 58.833 M237.042 47.917 C 237.044 48.283,237.078 48.414,237.118 48.206 C 237.158 47.999,237.156 47.699,237.115 47.540 C 237.073 47.380,237.040 47.550,237.042 47.917 M92.375 48.083 C 92.377 48.450,92.411 48.580,92.451 48.373 C 92.491 48.166,92.490 47.866,92.448 47.706 C 92.406 47.547,92.374 47.717,92.375 48.083 M221.039 48.833 C 221.039 49.154,221.073 49.285,221.115 49.125 C 221.157 48.965,221.157 48.702,221.115 48.542 C 221.073 48.381,221.039 48.512,221.039 48.833 M6.545 49.333 C 6.545 49.746,6.578 49.915,6.618 49.708 C 6.657 49.502,6.657 49.165,6.618 48.958 C 6.578 48.752,6.545 48.921,6.545 49.333 M231.078 59.917 C 231.078 65.692,231.099 68.030,231.125 65.113 C 231.150 62.196,231.150 57.471,231.125 54.613 C 231.099 51.755,231.078 54.142,231.078 59.917 M298.079 60.083 C 298.079 65.950,298.099 68.326,298.125 65.363 C 298.150 62.400,298.150 57.600,298.125 54.696 C 298.099 51.792,298.078 54.217,298.079 60.083 M51.776 49.875 C 51.818 49.944,57.172 50.000,63.672 50.000 L 75.492 50.000 75.544 52.542 L 75.596 55.083 75.590 52.500 L 75.583 49.917 63.641 49.833 C 57.073 49.788,51.733 49.806,51.776 49.875 M227.078 59.917 C 227.078 65.600,227.099 67.949,227.125 65.137 C 227.150 62.325,227.151 57.675,227.125 54.804 C 227.099 51.932,227.078 54.233,227.078 59.917 M92.564 51.750 C 92.564 52.850,92.591 53.278,92.624 52.702 C 92.656 52.125,92.656 51.225,92.623 50.702 C 92.590 50.178,92.563 50.650,92.564 51.750 M162.294 50.451 C 162.501 50.491,162.801 50.490,162.960 50.448 C 163.120 50.406,162.950 50.374,162.583 50.375 C 162.217 50.377,162.086 50.411,162.294 50.451 M291.411 60.750 C 291.411 65.975,291.432 68.088,291.458 65.446 C 291.484 62.805,291.484 58.530,291.458 55.946 C 291.432 53.363,291.411 55.525,291.411 60.750 M129.499 51.957 L 134.497 52.005 134.542 61.252 L 134.588 70.500 134.585 61.208 L 134.583 51.917 129.542 51.913 L 124.500 51.909 129.499 51.957 M6.545 54.167 C 6.545 54.579,6.578 54.748,6.618 54.542 C 6.657 54.335,6.657 53.998,6.618 53.792 C 6.578 53.585,6.545 53.754,6.545 54.167 M248.560 55.000 C 248.560 55.871,248.588 56.227,248.623 55.792 C 248.657 55.356,248.657 54.644,248.623 54.208 C 248.588 53.773,248.560 54.129,248.560 55.000 M190.539 54.167 C 190.539 54.487,190.573 54.619,190.615 54.458 C 190.657 54.298,190.657 54.035,190.615 53.875 C 190.573 53.715,190.539 53.846,190.539 54.167 M150.909 54.542 L 150.250 55.250 150.958 54.591 C 151.348 54.229,151.667 53.910,151.667 53.883 C 151.667 53.757,151.522 53.883,150.909 54.542 M92.375 55.417 C 92.377 55.783,92.411 55.914,92.451 55.706 C 92.491 55.499,92.490 55.199,92.448 55.040 C 92.406 54.880,92.374 55.050,92.375 55.417 M166.383 57.167 C 166.383 57.671,166.415 57.877,166.453 57.625 C 166.491 57.373,166.491 56.960,166.453 56.708 C 166.415 56.456,166.383 56.663,166.383 57.167 M190.406 60.417 C 190.405 62.708,190.429 63.669,190.458 62.551 C 190.487 61.434,190.487 59.559,190.458 58.385 C 190.429 57.211,190.406 58.125,190.406 60.417 M154.883 61.500 C 154.883 62.004,154.915 62.210,154.953 61.958 C 154.991 61.706,154.991 61.294,154.953 61.042 C 154.915 60.790,154.883 60.996,154.883 61.500 M251.000 64.052 C 251.000 64.081,251.244 64.325,251.542 64.594 L 252.083 65.083 251.594 64.542 C 251.138 64.037,251.000 63.923,251.000 64.052 M197.734 67.750 C 197.734 69.217,197.760 69.794,197.791 69.034 C 197.822 68.273,197.822 67.073,197.790 66.367 C 197.759 65.661,197.734 66.283,197.734 67.750 M304.901 67.833 C 304.901 69.346,304.926 69.965,304.957 69.208 C 304.988 68.452,304.988 67.215,304.957 66.458 C 304.926 65.702,304.901 66.321,304.901 67.833 M329.401 67.833 C 329.401 69.346,329.426 69.965,329.457 69.208 C 329.488 68.452,329.488 67.215,329.457 66.458 C 329.426 65.702,329.401 66.321,329.401 67.833 M74.067 68.167 C 74.067 69.587,74.093 70.169,74.124 69.458 C 74.155 68.748,74.155 67.585,74.124 66.875 C 74.093 66.165,74.067 66.746,74.067 68.167 M173.039 68.000 C 173.039 68.321,173.073 68.452,173.115 68.292 C 173.157 68.131,173.157 67.869,173.115 67.708 C 173.073 67.548,173.039 67.679,173.039 68.000 M245.833 68.219 C 245.833 68.248,246.077 68.491,246.375 68.760 L 246.917 69.250 246.427 68.708 C 245.971 68.203,245.833 68.090,245.833 68.219 M262.740 68.708 L 262.250 69.250 262.792 68.760 C 263.090 68.491,263.333 68.248,263.333 68.219 C 263.333 68.090,263.196 68.203,262.740 68.708 M165.575 69.208 L 164.917 69.917 165.625 69.258 C 166.284 68.645,166.410 68.500,166.284 68.500 C 166.257 68.500,165.938 68.819,165.575 69.208 M236.944 70.739 C 236.864 70.948,236.374 71.000,234.132 71.042 L 231.417 71.092 234.105 71.129 C 236.693 71.165,237.561 71.005,237.128 70.572 C 237.080 70.525,236.997 70.599,236.944 70.739 M166.979 71.046 C 167.050 71.117,168.415 71.154,170.012 71.129 L 172.917 71.083 169.883 71.000 C 168.214 70.954,166.907 70.975,166.979 71.046 M119.458 71.124 C 120.306 71.154,121.694 71.154,122.542 71.124 C 123.390 71.094,122.696 71.069,121.000 71.069 C 119.304 71.069,118.610 71.094,119.458 71.124 M136.533 71.124 C 137.331 71.154,138.681 71.155,139.533 71.124 C 140.386 71.094,139.733 71.069,138.083 71.069 C 136.433 71.069,135.736 71.093,136.533 71.124 M184.125 71.125 C 186.531 71.151,190.469 71.151,192.875 71.125 C 195.281 71.099,193.313 71.078,188.500 71.078 C 183.688 71.078,181.719 71.099,184.125 71.125 M212.792 71.124 C 213.548 71.155,214.785 71.155,215.542 71.124 C 216.298 71.093,215.679 71.068,214.167 71.068 C 212.654 71.068,212.035 71.093,212.792 71.124 M275.883 71.124 C 276.690 71.155,277.965 71.155,278.717 71.124 C 279.468 71.093,278.808 71.068,277.250 71.068 C 275.692 71.068,275.077 71.094,275.883 71.124 M293.383 71.124 C 294.190 71.155,295.465 71.155,296.217 71.124 C 296.968 71.093,296.308 71.068,294.750 71.068 C 293.192 71.068,292.577 71.094,293.383 71.124 M311.292 71.125 C 314.523 71.150,319.810 71.150,323.042 71.125 C 326.273 71.100,323.629 71.079,317.167 71.079 C 310.704 71.079,308.060 71.100,311.292 71.125 M345.708 71.124 C 346.510 71.155,347.823 71.155,348.625 71.124 C 349.427 71.094,348.771 71.069,347.167 71.069 C 345.563 71.069,344.906 71.094,345.708 71.124 M158.294 72.118 C 158.501 72.158,158.801 72.156,158.960 72.115 C 159.120 72.073,158.950 72.040,158.583 72.042 C 158.217 72.044,158.086 72.078,158.294 72.118 M370.961 74.454 C 371.261 74.491,371.711 74.490,371.961 74.452 C 372.212 74.414,371.967 74.384,371.417 74.385 C 370.867 74.386,370.662 74.417,370.961 74.454 M367.539 75.667 C 367.539 75.987,367.573 76.119,367.615 75.958 C 367.657 75.798,367.657 75.535,367.615 75.375 C 367.573 75.215,367.539 75.346,367.539 75.667 M19.083 82.167 C 19.720 82.808,20.279 83.333,20.324 83.333 C 20.370 83.333,19.887 82.808,19.250 82.167 C 18.613 81.525,18.055 81.000,18.009 81.000 C 17.963 81.000,18.447 81.525,19.083 82.167 M78.240 83.708 L 77.750 84.250 78.292 83.760 C 78.797 83.304,78.910 83.167,78.781 83.167 C 78.752 83.167,78.509 83.410,78.240 83.708 M45.875 94.615 C 46.035 94.657,46.298 94.657,46.458 94.615 C 46.619 94.573,46.487 94.539,46.167 94.539 C 45.846 94.539,45.715 94.573,45.875 94.615 " stroke="none" fill="#585858" fill-rule="evenodd"></path><path id="path4" d="M20.740 19.875 L 20.250 20.417 20.792 19.927 C 21.090 19.658,21.333 19.414,21.333 19.385 C 21.333 19.257,21.196 19.370,20.740 19.875 M78.500 20.046 C 78.500 20.071,79.081 20.652,79.792 21.338 L 81.083 22.583 79.838 21.292 C 78.680 20.092,78.500 19.924,78.500 20.046 M35.747 46.333 C 35.747 56.921,35.767 61.252,35.792 55.958 C 35.816 50.665,35.816 42.002,35.792 36.708 C 35.767 31.415,35.747 35.746,35.747 46.333 M124.411 36.667 C 124.411 41.387,124.432 43.319,124.458 40.958 C 124.484 38.598,124.484 34.735,124.458 32.375 C 124.432 30.015,124.411 31.946,124.411 36.667 M350.410 37.667 L 350.417 40.417 355.417 40.420 L 360.417 40.424 355.462 40.376 L 350.508 40.328 350.456 37.623 L 350.403 34.917 350.410 37.667 M198.708 38.115 C 198.869 38.157,199.131 38.157,199.292 38.115 C 199.452 38.073,199.321 38.039,199.000 38.039 C 198.679 38.039,198.548 38.073,198.708 38.115 M286.794 38.118 C 287.001 38.158,287.301 38.156,287.460 38.115 C 287.620 38.073,287.450 38.040,287.083 38.042 C 286.717 38.044,286.586 38.078,286.794 38.118 M219.960 38.285 C 220.168 38.324,220.468 38.323,220.627 38.281 C 220.786 38.239,220.617 38.207,220.250 38.209 C 219.883 38.211,219.753 38.245,219.960 38.285 M230.044 38.286 C 230.297 38.325,230.672 38.324,230.877 38.284 C 231.082 38.244,230.875 38.213,230.417 38.214 C 229.958 38.216,229.791 38.248,230.044 38.286 M253.963 38.289 C 254.355 38.324,254.955 38.324,255.296 38.288 C 255.637 38.252,255.317 38.223,254.583 38.224 C 253.850 38.224,253.571 38.254,253.963 38.289 M181.302 38.958 C 182.798 38.986,185.198 38.986,186.635 38.958 C 188.073 38.930,186.850 38.908,183.917 38.908 C 180.983 38.908,179.807 38.930,181.302 38.958 M212.625 38.957 C 213.290 38.989,214.377 38.989,215.042 38.957 C 215.706 38.925,215.162 38.900,213.833 38.900 C 212.504 38.900,211.960 38.925,212.625 38.957 M275.800 38.957 C 276.560 38.988,277.760 38.988,278.466 38.957 C 279.172 38.926,278.550 38.901,277.083 38.901 C 275.617 38.901,275.039 38.927,275.800 38.957 M310.042 38.958 C 311.944 38.985,315.056 38.985,316.958 38.958 C 318.860 38.931,317.304 38.910,313.500 38.910 C 309.696 38.910,308.140 38.931,310.042 38.958 M367.109 38.958 C 367.066 39.027,367.943 39.064,369.057 39.040 C 372.736 38.961,373.125 38.898,370.135 38.865 C 368.513 38.848,367.151 38.890,367.109 38.958 M387.867 38.957 C 388.664 38.988,390.014 38.988,390.867 38.958 C 391.719 38.927,391.067 38.902,389.417 38.902 C 387.767 38.902,387.069 38.927,387.867 38.957 M227.073 39.708 L 226.583 40.250 227.125 39.760 C 227.630 39.304,227.743 39.167,227.615 39.167 C 227.586 39.167,227.342 39.410,227.073 39.708 M233.917 39.833 C 234.275 40.200,234.605 40.500,234.651 40.500 C 234.697 40.500,234.441 40.200,234.083 39.833 C 233.725 39.467,233.395 39.167,233.349 39.167 C 233.303 39.167,233.559 39.467,233.917 39.833 M189.568 42.000 C 189.568 43.512,189.593 44.131,189.624 43.375 C 189.655 42.619,189.655 41.381,189.624 40.625 C 189.593 39.869,189.568 40.487,189.568 42.000 M211.045 40.000 C 211.045 40.412,211.078 40.581,211.118 40.375 C 211.157 40.169,211.157 39.831,211.118 39.625 C 211.078 39.419,211.045 39.587,211.045 40.000 M178.067 42.083 C 178.068 43.550,178.093 44.128,178.124 43.367 C 178.155 42.606,178.155 41.406,178.124 40.700 C 178.093 39.994,178.067 40.617,178.067 42.083 M320.872 51.948 C 320.851 58.841,320.890 64.515,320.958 64.558 C 321.072 64.628,321.070 55.638,320.955 43.917 C 320.931 41.442,320.894 45.056,320.872 51.948 M306.067 42.167 C 306.067 43.587,306.093 44.169,306.124 43.458 C 306.155 42.748,306.155 41.585,306.124 40.875 C 306.093 40.165,306.067 40.746,306.067 42.167 M336.442 40.458 C 336.399 40.527,337.464 40.564,338.807 40.540 C 343.316 40.461,343.776 40.401,340.135 40.367 C 338.146 40.348,336.485 40.390,336.442 40.458 M294.500 41.250 C 294.811 41.571,295.103 41.833,295.149 41.833 C 295.195 41.833,294.978 41.571,294.667 41.250 C 294.356 40.929,294.064 40.667,294.018 40.667 C 293.972 40.667,294.189 40.929,294.500 41.250 M262.333 41.052 C 262.333 41.081,262.577 41.325,262.875 41.594 L 263.417 42.083 262.927 41.542 C 262.471 41.037,262.333 40.923,262.333 41.052 M336.067 43.583 C 336.068 45.050,336.093 45.628,336.124 44.867 C 336.155 44.106,336.155 42.906,336.124 42.200 C 336.093 41.494,336.067 42.117,336.067 43.583 M273.894 42.750 C 273.895 43.667,273.923 44.020,273.956 43.536 C 273.990 43.052,273.990 42.302,273.956 41.869 C 273.921 41.437,273.894 41.833,273.894 42.750 M224.680 43.556 C 224.665 43.905,225.029 43.851,225.127 43.490 C 225.181 43.292,225.164 43.289,225.033 43.477 C 224.898 43.669,224.860 43.669,224.783 43.477 C 224.723 43.324,224.689 43.350,224.680 43.556 M193.406 46.875 L 192.917 47.417 193.458 46.927 C 193.963 46.471,194.077 46.333,193.948 46.333 C 193.919 46.333,193.675 46.577,193.406 46.875 M343.912 58.750 C 343.912 65.350,343.933 68.026,343.958 64.696 C 343.984 61.366,343.984 55.966,343.958 52.696 C 343.933 49.426,343.912 52.150,343.912 58.750 M350.412 58.667 C 350.412 65.221,350.433 67.902,350.458 64.625 C 350.484 61.348,350.484 55.985,350.458 52.708 C 350.433 49.431,350.412 52.112,350.412 58.667 M6.709 48.417 C 6.711 48.783,6.745 48.914,6.785 48.706 C 6.824 48.499,6.823 48.199,6.781 48.040 C 6.739 47.880,6.707 48.050,6.709 48.417 M172.872 48.667 C 172.872 48.987,172.906 49.119,172.948 48.958 C 172.990 48.798,172.990 48.535,172.948 48.375 C 172.906 48.215,172.872 48.346,172.872 48.667 M92.379 49.667 C 92.379 50.079,92.411 50.248,92.451 50.042 C 92.491 49.835,92.491 49.498,92.451 49.292 C 92.411 49.085,92.379 49.254,92.379 49.667 M237.079 59.750 C 237.079 65.617,237.099 67.992,237.125 65.030 C 237.150 62.067,237.150 57.267,237.125 54.363 C 237.099 51.459,237.078 53.883,237.079 59.750 M221.245 59.833 C 221.245 65.379,221.266 67.648,221.292 64.875 C 221.317 62.102,221.317 57.565,221.292 54.792 C 221.266 52.019,221.245 54.288,221.245 59.833 M165.000 50.333 L 163.750 50.440 164.948 50.470 C 165.608 50.486,166.193 50.425,166.250 50.333 C 166.307 50.242,166.330 50.180,166.302 50.197 C 166.273 50.213,165.688 50.275,165.000 50.333 M161.542 50.615 C 161.702 50.657,161.965 50.657,162.125 50.615 C 162.285 50.573,162.154 50.539,161.833 50.539 C 161.512 50.539,161.381 50.573,161.542 50.615 M6.553 51.667 C 6.553 52.262,6.584 52.506,6.621 52.208 C 6.658 51.910,6.658 51.423,6.621 51.125 C 6.584 50.827,6.553 51.071,6.553 51.667 M124.411 61.167 C 124.411 66.346,124.432 68.465,124.458 65.875 C 124.484 63.285,124.484 59.048,124.458 56.458 C 124.432 53.869,124.411 55.987,124.411 61.167 M92.379 53.833 C 92.379 54.246,92.411 54.415,92.451 54.208 C 92.491 54.002,92.491 53.665,92.451 53.458 C 92.411 53.252,92.379 53.421,92.379 53.833 M260.728 55.083 C 260.728 56.000,260.756 56.354,260.790 55.869 C 260.824 55.385,260.823 54.635,260.789 54.203 C 260.755 53.770,260.727 54.167,260.728 55.083 M6.709 55.083 C 6.711 55.450,6.745 55.580,6.785 55.373 C 6.824 55.166,6.823 54.866,6.781 54.706 C 6.739 54.547,6.707 54.717,6.709 55.083 M190.372 55.333 C 190.372 55.654,190.406 55.785,190.448 55.625 C 190.490 55.465,190.490 55.202,190.448 55.042 C 190.406 54.881,190.372 55.012,190.372 55.333 M53.625 55.292 C 57.681 55.316,64.319 55.316,68.375 55.292 C 72.431 55.267,69.112 55.246,61.000 55.246 C 52.887 55.246,49.569 55.267,53.625 55.292 M166.860 69.282 C 166.845 70.124,166.890 70.849,166.958 70.891 C 167.027 70.934,167.063 70.470,167.037 69.860 C 166.957 67.926,166.888 67.699,166.860 69.282 M41.195 70.958 C 47.215 70.983,57.115 70.983,63.195 70.958 C 69.275 70.934,64.350 70.914,52.250 70.914 C 40.150 70.914,35.175 70.934,41.195 70.958 M157.375 71.948 C 157.535 71.990,157.798 71.990,157.958 71.948 C 158.119 71.906,157.987 71.872,157.667 71.872 C 157.346 71.872,157.215 71.906,157.375 71.948 M159.208 71.948 C 159.369 71.990,159.631 71.990,159.792 71.948 C 159.952 71.906,159.821 71.872,159.500 71.872 C 159.179 71.872,159.048 71.906,159.208 71.948 M253.963 71.956 C 254.355 71.991,254.955 71.990,255.296 71.954 C 255.637 71.919,255.317 71.890,254.583 71.890 C 253.850 71.891,253.571 71.920,253.963 71.956 M19.167 82.083 C 20.034 82.954,20.781 83.667,20.827 83.667 C 20.873 83.667,20.201 82.954,19.333 82.083 C 18.466 81.212,17.719 80.500,17.673 80.500 C 17.627 80.500,18.299 81.212,19.167 82.083 M79.824 82.125 L 79.250 82.750 79.875 82.176 C 80.219 81.860,80.500 81.578,80.500 81.551 C 80.500 81.423,80.359 81.543,79.824 82.125 M53.375 94.448 C 53.535 94.490,53.798 94.490,53.958 94.448 C 54.119 94.406,53.987 94.372,53.667 94.372 C 53.346 94.372,53.215 94.406,53.375 94.448 M48.300 94.624 C 49.060 94.655,50.260 94.655,50.966 94.624 C 51.672 94.593,51.050 94.567,49.583 94.567 C 48.117 94.568,47.539 94.593,48.300 94.624 " stroke="none" fill="#848484" fill-rule="evenodd"></path></g></svg>